<?xml version="1.0" ?><!DOCTYPE svg  PUBLIC '-//W3C//DTD SVG 1.1//EN'  'http://www.w3.org/Graphics/SVG/1.1/DTD/svg11.dtd'><svg enable-background="new 0 0 24 24" height="24px" id="Layer_1" version="1.1" viewBox="0 0 24 24" width="24px" xml:space="preserve" xmlns="http://www.w3.org/2000/svg" xmlns:xlink="http://www.w3.org/1999/xlink"><g><path d="M19.7,0.5H4.3c-2.1,0-3.8,1.7-3.8,3.8v15.4c0,2.1,1.7,3.8,3.8,3.8h15.4c2.1,0,3.8-1.7,3.8-3.8V4.3   C23.5,2.2,21.8,0.5,19.7,0.5z M12.7,14.8h2c1.2,0,2.2,1,2.2,2.2c0,1.2-1,2.2-2.2,2.2h-2c-3,0-5.5-2.5-5.5-5.5V7.1   c0-1.2,1-2.2,2.2-2.2c1.2,0,2.2,1,2.2,2.2v1.4h2.7h0.6c1.2,0,2.2,1,2.2,2.2c0,1.2-1,2.2-2.2,2.2h-3.2v0.8   C11.5,14.3,12,14.8,12.7,14.8z"/></g></svg>